# xmcd
#
# Track frame offsets:
#	150
#	14841
#	33617
#	47542
#	59641
#	76089
#	94373
#	106564
#	122303
#	135885
#
# Disc length: 2161 seconds
#
# Revision: 1
# Processed by: cddbd v1.5.1PL0 Copyright (c) Steve Scherf et al.
# Submitted via: audiograbber 1.83.01
#
DISCID=76086f0a
DTITLE=Sand Sheff - Turn Me Around
DYEAR=2000
DGENRE=Country
TTITLE0=Turn me around
TTITLE1=Love me like a stranger
TTITLE2=Gimme a drink
TTITLE3=Angel don't you cry
TTITLE4=It must be hard loving a man
TTITLE5=Wild Moon shine
TTITLE6=Dead broke
TTITLE7=Miner, miner
TTITLE8=Sunflower
TTITLE9=Buffalo Skinners
EXTD=
EXTT0=
EXTT1=
EXTT2=
EXTT3=
EXTT4=
EXTT5=
EXTT6=
EXTT7=
EXTT8=
EXTT9=
PLAYORDER=
